PathFileType	4	(X/Y/Z)	Patient4_TMGait_0pt8_01_left_17.trc.trc
DataRate	CameraRate	NumFrames	NumMarkers	Units	OrigDataRate	OrigDataStartFrame	OrigNumFrames
86.419753086420	86.419753086420	4	33	mm	86.419753086420	89	       141
Frame#	Time	Sacral			L.Shoulder			Chest			R.Shoulder			Neck			R.ASIS			L.ASIS			R.Thigh.Superior			R.Thigh.Lateral			R.Thigh.Inferior			R.Patella			L.Thigh.Superior			L.Thigh.Lateral			L.Thigh.Inferior			L.Patella			L.Shank.Superior			L.Shank.Lateral			L.Shank.Inferior			R.Shank.Superior			R.Shank.Lateral			R.Shank.Inferior			R.Heel			R.Midfoot.Superior			R.Midfoot.Lateral			R.Toe			L.Heel			L.Midfoot.Lateral			L.Midfoot.Superior			L.Toe			L.Elbow			L.Wrist			R.Elbow			R.Wrist			
		X1	Y1	Z1	X2	Y2	Z2	X3	Y3	Z3	X4	Y4	Z4	X5	Y5	Z5	X6	Y6	Z6	X7	Y7	Z7	X8	Y8	Z8	X9	Y9	Z9	X10	Y10	Z10	X11	Y11	Z11	X12	Y12	Z12	X13	Y13	Z13	X14	Y14	Z14	X15	Y15	Z15	X16	Y16	Z16	X17	Y17	Z17	X18	Y18	Z18	X19	Y19	Z19	X20	Y20	Z20	X21	Y21	Z21	X22	Y22	Z22	X23	Y23	Z23	X24	Y24	Z24	X25	Y25	Z25	X26	Y26	Z26	X27	Y27	Z27	X28	Y28	Z28	X29	Y29	Z29	X30	Y30	Z30	X31	Y31	Z31	X32	Y32	Z32	X33	Y33	Z33	

89	19.268285714286	922.636364725538	992.927137707297	449.869245742725	1087.830448281000	1426.021508841676	268.320199642350	1184.470245905496	1362.611481432757	436.014082122493	1085.685373957046	1429.985948363306	604.759423411315	1057.967879738088	1486.110391718243	422.846214370053	1150.540582703223	938.840960079703	571.844487306730	1139.765107505800	951.604893556984	298.478437988432	1217.987469426466	749.416857645539	539.616738310697	1152.846367410217	629.530835274501	598.056088475535	1238.419940839566	588.398251199003	518.849697454928	1252.872226517020	496.211311465826	526.296446215216	1158.892195271343	723.907305621108	316.680889126535	1056.033746703170	619.104408617511	252.238888420531	1136.245121997367	525.264349342893	304.529810535903	1118.545588652860	441.317237416426	299.699476706266	1044.391218288291	390.322160724286	297.702705260967	897.419754341510	358.379291626960	260.885424237796	879.315392510114	229.840381664967	315.667233269585	1222.459824074276	405.566175824205	530.900995908343	1150.066620795017	300.411459226412	587.488616158093	1194.932879873172	206.355793307448	526.272200443353	1063.739945079694	41.649335799878	489.415542187691	1232.916110761059	98.172297576143	535.760661150977	1142.285476307134	37.706030889262	569.496129691073	1350.878810262458	43.847373419701	571.631919679733	688.653546083817	178.059222670968	368.685039730596	735.885645779099	119.690109111432	291.236258999241	841.830095573701	124.055258638180	303.614250045145	911.748573229819	30.171460093438	286.496087703771	1144.751328737434	1086.762484183890	135.518393950196	1396.322667353450	1044.043355950999	165.742176908937	983.520897028367	1092.885943474933	705.374157982141	996.357383681685	832.783681314082	714.410552306835	
90	19.279857142857	923.016374468612	993.969955214911	453.352243842925	1086.600223395948	1426.597769581274	269.700214752760	1184.771639827724	1363.669057659644	436.703205825193	1087.407793782709	1431.228900955571	606.160854630163	1058.011871207856	1486.992905342872	424.363868368326	1151.464594074314	939.874006175762	574.105546904268	1139.549202708052	952.381644584265	300.816878642297	1216.600257524711	748.243992834432	543.061672970217	1148.919989319891	629.344014933407	600.265833797216	1234.196731834172	587.279531766244	521.248141778060	1247.125426966118	495.113679976681	528.057379394603	1164.449009340274	726.147851443902	318.972450677256	1065.832830672863	618.903085256858	253.236089390845	1148.632932357242	526.788907876756	305.846393460559	1132.168145121402	441.789595419109	300.658085273503	1056.386101734446	390.950829079670	298.389626296524	908.553240599666	364.143594465012	260.608247155829	885.785711477368	236.287112823817	315.125090887701	1216.007379313266	404.804212985936	532.365220390567	1142.832875578253	300.057997660580	588.489072326821	1186.946597684435	205.916480149577	526.846026097094	1054.597918844062	41.674164924329	489.555644758043	1223.775316069131	98.026642869684	535.914647454533	1133.088501279215	37.659570683530	569.573175845418	1341.741613149296	43.459458172775	571.891118644303	693.672732170565	195.714189809907	366.796740451599	737.373047680281	133.703248901613	289.798821681920	843.451945922541	130.223272382031	302.910161379653	905.140667499901	28.729152377989	286.338518476806	1137.809227143715	1084.713483380401	140.050908697128	1387.482572097708	1027.468083085904	167.377221661393	993.630003531297	1091.485641893561	709.211650753678	1021.770864219961	832.182022834257	715.943878834954	
91	19.291428571429	923.169138979481	994.937005610038	456.740514212127	1085.179298693814	1427.009609246056	270.957675735013	1184.953268931645	1364.561582382621	437.217649718575	1089.147976913187	1432.318309056233	607.468084986547	1058.026108806749	1487.777637469031	425.784471298256	1152.153227645107	940.749090536514	576.251283322533	1139.194784606121	953.081556390341	302.891948842302	1214.927594669884	747.089905390046	546.359767037462	1144.795761757089	629.168728953348	602.381630559423	1229.710053701127	586.175309512604	523.520304650914	1241.072324084209	494.048712468429	529.752723461970	1169.835254074650	728.655687668382	321.293904022537	1075.597033205356	619.093395654186	254.304700967136	1160.848921383795	528.875802813661	307.507398033768	1145.880023672809	442.884106045994	302.116959237973	1068.721592403074	392.040160661917	299.471308084298	920.345325578591	369.869340120365	260.435054393600	893.213990753582	242.812216135005	314.872044335302	1209.328396343820	404.078212485988	533.768393350890	1135.419809932241	299.722161025175	589.475092927871	1178.839224486937	205.511295436274	527.422639923408	1045.392930615817	41.731494251083	489.704615422416	1214.601191674692	97.859575856761	536.040225813329	1123.844108205896	37.612093833178	569.680632540841	1332.549810545032	43.034427938266	572.113336991386	700.187233830310	212.596873428617	365.049319317690	740.605506596364	147.587932628984	288.363735200833	846.456931439242	136.845799839315	302.357327208268	900.207509807492	27.675131290104	285.950164557773	1131.024855078578	1082.617392240745	144.657768012906	1377.641345433280	1009.884485490556	168.853763219199	1004.023510840658	1090.206402330715	713.066589815337	1048.153137591430	832.758527900325	717.170354967752	
92	19.303000000000	923.101730775935	995.845850916521	460.017139108008	1083.604202072758	1427.284830980085	272.091812485575	1185.021545375323	1365.303025063916	437.567389482414	1090.896901609085	1433.281358496632	608.670023584995	1058.024336611041	1488.491432232027	427.094566131825	1152.613284076660	941.498223529521	578.272513816958	1138.701637717062	953.737559669801	304.722819165640	1213.000267365033	746.006368294064	549.407874392437	1140.557142128364	629.035687837989	604.371798903289	1225.019071540422	585.113791415889	525.613964951490	1234.780703666273	493.037259987909	531.334054607067	1174.940011925727	731.467151466484	323.683397139744	1085.187551107235	619.754854191585	255.466940428862	1172.760154822761	531.578041937779	309.468907293833	1159.530694563923	444.650036211012	303.957508118406	1081.252478785737	393.642697735293	300.859644231145	932.583305254503	375.478850876096	260.427815458203	901.578257376087	249.227620800953	314.884834647466	1202.488692465802	403.405710921094	535.078523894319	1127.882163807151	299.430662827508	590.429462358528	1170.642692890582	205.152744495450	527.989468616384	1036.136721405429	41.824585938226	489.868319085158	1205.399414067158	97.682983619919	536.142631077087	1114.565111979997	37.574424211975	569.827238838674	1323.313752951638	42.602732513037	572.308539854136	708.063072352318	227.990144116142	363.562712454658	745.635706125887	160.727328224873	287.006095876661	851.020760244005	143.661117703682	301.904278375068	897.551158989159	27.218205893333	285.250174594115	1124.457111212178	1080.501498936556	149.329532538453	1366.634135668577	991.477030676340	170.180928693435	1014.725322449437	1089.082658139460	716.891683241987	1075.358370557464	834.699791775312	718.048236683284	
